
        <svg data-logo="logo" xmlns="http://www.w3.org/2000/svg" viewBox="0 0 194 40">
          <g id="logogram" transform="translate(0, 0) rotate(0)"><path fill-rule="evenodd" clip-rule="evenodd" d="M0 15V31H5C5.52527 31 6.04541 31.1035 6.53076 31.3045C7.01599 31.5055 7.45703 31.8001 7.82837 32.1716C8.19983 32.543 8.49451 32.984 8.69556 33.4693C8.89648 33.9546 9 34.4747 9 35V40H21L36 25V9H31C30.4747 9 29.9546 8.89655 29.4692 8.69553C28.984 8.49451 28.543 8.19986 28.1716 7.82843C27.8002 7.457 27.5055 7.01602 27.3044 6.53073C27.1035 6.04544 27 5.5253 27 5V0H15L0 15ZM17 30H10V19L19 10H26V21L17 30Z" fill="#0004E8"/></g>
          <g id="logotype" transform="translate(42, 2.5)"><path fill="#111111" d="M10.90 35L6.53 35L12.83 10.50L18.08 10.50L24.38 35L20 35L18.46 28.88L12.44 28.88L10.90 35ZM15.38 16.10L13 26.07L17.87 26.07L15.52 16.10L15.38 16.10ZM31.55 35.35L31.55 35.35Q30.08 35.35 28.84 34.88Q27.60 34.41 26.86 33.13Q26.13 31.85 26.13 29.40L26.13 29.40L26.13 20.47L24.20 20.47L24.20 17.85L26.13 17.85L26.13 13.65L30.33 13.65L30.33 17.85L35.05 17.85L35.05 19.77Q34.28 20.02 33.06 20.25Q31.83 20.47 30.50 20.47L30.50 20.47L30.33 20.47L30.33 29.40Q30.33 30.80 30.68 31.55Q31.03 32.30 31.55 32.60Q32.08 32.90 32.60 32.90L32.60 32.90L35.75 32.90L35.75 34.65Q35.33 34.83 34.60 34.98Q33.86 35.14 33.06 35.24Q32.25 35.35 31.55 35.35ZM42.93 35.35L42.93 35.35Q41.46 35.35 40.21 34.88Q38.97 34.41 38.24 33.13Q37.50 31.85 37.50 29.40L37.50 29.40L37.50 20.47L35.58 20.47L35.58 17.85L37.50 17.85L37.50 13.65L41.70 13.65L41.70 17.85L46.43 17.85L46.43 19.77Q45.66 20.02 44.43 20.25Q43.21 20.47 41.88 20.47L41.88 20.47L41.70 20.47L41.70 29.40Q41.70 30.80 42.05 31.55Q42.40 32.30 42.93 32.60Q43.45 32.90 43.98 32.90L43.98 32.90L47.13 32.90L47.13 34.65Q46.71 34.83 45.97 34.98Q45.24 35.14 44.43 35.24Q43.63 35.35 42.93 35.35ZM55.18 35.35L55.18 35.35Q52.48 35.35 50.73 34.46Q48.98 33.56 48.14 31.57Q47.30 29.57 47.30 26.25L47.30 26.25Q47.30 22.92 48.09 20.93Q48.88 18.93 50.36 18.04Q51.85 17.15 53.95 17.15L53.95 17.15Q56.05 17.15 57.54 18.04Q59.03 18.93 59.81 20.93Q60.60 22.92 60.60 26.25L60.60 26.25L60.60 27.48L51.50 27.48Q51.50 30.48 52.57 31.69Q53.64 32.90 55.88 32.90L55.88 32.90L59.73 32.90L59.73 34.65Q58.96 34.90 57.73 35.12Q56.51 35.35 55.18 35.35ZM51.50 25.02L51.50 25.02L56.40 25.02Q56.40 22.75 56.09 21.54Q55.77 20.34 55.21 19.88Q54.65 19.42 53.95 19.42L53.95 19.42Q53.25 19.42 52.69 19.88Q52.13 20.34 51.82 21.54Q51.50 22.75 51.50 25.02ZM67.08 35L62.88 35L62.88 17.50L65.85 17.50L66.38 18.55L66.55 18.55Q67.11 18.02 68.06 17.59Q69.00 17.15 70.58 17.15L70.58 17.15Q72.08 17.15 73.31 17.60Q74.53 18.06 75.27 19.27Q76.00 20.47 76.00 22.75L76.00 22.75L76.00 35L71.80 35L71.80 22.75Q71.80 20.89 70.93 20.25Q70.05 19.60 69.00 19.60L69.00 19.60Q68.34 19.60 67.85 19.81Q67.36 20.02 67.08 20.30L67.08 20.30L67.08 35ZM84.22 35.35L84.22 35.35Q82.47 35.35 81.13 34.46Q79.78 33.56 79.03 31.57Q78.28 29.57 78.28 26.25L78.28 26.25Q78.28 22.92 79.05 20.93Q79.81 18.93 81.23 18.04Q82.65 17.15 84.58 17.15L84.58 17.15Q85.48 17.15 86.24 17.39Q86.99 17.64 87.55 18.02L87.55 18.02L87.55 10.50L91.75 10.50L91.75 35L88.78 35L88.25 33.95L88.08 33.95Q87.52 34.48 86.59 34.91Q85.66 35.35 84.22 35.35ZM85.63 32.90L85.63 32.90Q86.29 32.90 86.73 32.67Q87.17 32.45 87.55 32.20L87.55 32.20L87.55 20.30Q87.31 20.02 86.80 19.81Q86.29 19.60 85.63 19.60L85.63 19.60Q84.75 19.60 84.03 20.16Q83.31 20.72 82.89 22.17Q82.47 23.63 82.47 26.25L82.47 26.25Q82.47 28.88 82.89 30.31Q83.31 31.75 84.03 32.32Q84.75 32.90 85.63 32.90ZM108.03 35L95.25 35L95.25 10.50L108.03 10.50L108.03 13.30L99.45 13.30L99.45 20.82L106.97 20.82L106.97 23.63L99.45 23.63L99.45 32.20L108.03 32.20L108.03 35ZM114.85 35.35L114.85 35.35Q113.38 35.35 112.14 34.90Q110.89 34.44 110.16 33.23Q109.42 32.02 109.42 29.75L109.42 29.75Q109.42 27.48 110.18 26.27Q110.93 25.06 112.24 24.60Q113.55 24.15 115.20 24.15L115.20 24.15Q116.00 24.15 116.76 24.25Q117.51 24.36 118.17 24.50L118.17 24.50L118.17 23.10Q118.17 21 117.19 20.30Q116.21 19.60 114.50 19.60L114.50 19.60L111.00 19.60L111.00 17.85Q111.80 17.57 112.98 17.36Q114.15 17.15 115.20 17.15L115.20 17.15Q117.58 17.15 119.17 17.62Q120.76 18.09 121.57 19.37Q122.38 20.65 122.38 23.10L122.38 23.10L122.38 35L119.40 35L118.88 33.95L118.70 33.95Q118.14 34.48 117.21 34.91Q116.28 35.35 114.85 35.35ZM116.25 32.90L116.25 32.90Q116.91 32.90 117.42 32.67Q117.93 32.45 118.17 32.20L118.17 32.20L118.17 26.60L116.25 26.60Q115.65 26.60 115.04 26.88Q114.43 27.16 114.03 27.84Q113.62 28.52 113.62 29.75L113.62 29.75Q113.62 30.98 114.03 31.66Q114.43 32.34 115.04 32.62Q115.65 32.90 116.25 32.90ZM129.20 35.35L129.20 35.35Q127.90 35.35 126.68 35.12Q125.45 34.90 124.65 34.65L124.65 34.65L124.65 32.90L128.50 32.90Q130.46 32.90 131.49 32.32Q132.52 31.75 132.52 30.45L132.52 30.45Q132.52 29.54 131.93 28.96Q131.33 28.38 130.41 27.96Q129.48 27.54 128.41 27.11Q127.34 26.67 126.42 26.06Q125.49 25.45 124.89 24.48Q124.30 23.52 124.30 22.05L124.30 22.05Q124.30 19.14 126.07 18.15Q127.83 17.15 131.13 17.15L131.13 17.15Q132.45 17.15 133.68 17.36Q134.90 17.57 135.67 17.85L135.67 17.85L135.67 19.60L131.82 19.60Q130.39 19.60 129.44 20.13Q128.50 20.65 128.50 21.70L128.50 21.70Q128.50 22.61 129.09 23.19Q129.69 23.77 130.62 24.18Q131.54 24.60 132.61 25.04Q133.68 25.48 134.61 26.09Q135.53 26.70 136.13 27.65Q136.72 28.59 136.72 30.10L136.72 30.10Q136.72 32.20 135.90 33.34Q135.08 34.48 133.42 34.91Q131.75 35.35 129.20 35.35ZM145.65 35.35L145.65 35.35Q142.95 35.35 141.20 34.46Q139.45 33.56 138.61 31.57Q137.77 29.57 137.77 26.25L137.77 26.25Q137.77 22.92 138.56 20.93Q139.35 18.93 140.84 18.04Q142.32 17.15 144.42 17.15L144.42 17.15Q146.52 17.15 148.01 18.04Q149.50 18.93 150.29 20.93Q151.07 22.92 151.07 26.25L151.07 26.25L151.07 27.48L141.97 27.48Q141.97 30.48 143.04 31.69Q144.11 32.90 146.35 32.90L146.35 32.90L150.20 32.90L150.20 34.65Q149.43 34.90 148.20 35.12Q146.98 35.35 145.65 35.35ZM141.97 25.02L141.97 25.02L146.87 25.02Q146.87 22.75 146.56 21.54Q146.24 20.34 145.68 19.88Q145.12 19.42 144.42 19.42L144.42 19.42Q143.72 19.42 143.16 19.88Q142.60 20.34 142.29 21.54Q141.97 22.75 141.97 25.02Z"/></g>
          
        </svg>
      